<svg width="72" height="72" viewBox="0 0 72 72" fill="none" xmlns="http://www.w3.org/2000/svg">
<circle cx="44" cy="44" r="28" fill="#2C6269"/>
<path fill-rule="evenodd" clip-rule="evenodd" d="M14.4958 0H28.4958C34.1565 0 38.7625 4.606 38.7625 10.2666V10.2667V14.9333C40.8215 14.9333 42.4958 16.6078 42.4958 18.6667C42.4958 20.7256 40.8215 22.4 38.7625 22.4H38.55C38.2613 26.0674 36.1976 29.2747 33.1624 31.101V32.6667H36.1118C38.6029 32.6667 40.6292 34.693 40.6291 37.1842C40.6298 37.2541 40.6289 37.3238 40.6264 37.3934L40.7477 37.4014C44.9636 37.9624 48.0958 41.5427 48.0959 45.7333V56H46.2292V45.7334C46.2292 42.4733 43.7932 39.6891 40.5611 39.258L40.1564 39.2323C40.0734 39.3986 39.9798 39.5606 39.876 39.7172L35.0291 46.9513V56H33.1624V42.9565C31.5586 44.1449 29.6053 44.8 27.5625 44.8C25.5193 44.8 23.5662 44.1451 21.9625 42.9571V56H20.0958V46.9507L15.2511 39.7198C15.1464 39.5623 15.0523 39.3996 14.9689 39.2326L14.5024 39.2634C11.3318 39.689 8.89582 42.4732 8.89582 45.7333V56H7.02911V45.7333C7.02911 41.5426 10.1614 37.9633 14.3166 37.407L14.4983 37.3946C14.4955 37.3215 14.4944 37.2481 14.4951 37.1746C14.4951 34.6929 16.5212 32.6666 19.0123 32.6666H21.9625V31.1315C19.2933 29.5509 17.3029 26.8626 16.7201 23.577C16.6622 23.2503 16.6183 22.9208 16.5903 22.5904L16.5757 22.4H16.3625C14.3035 22.4 12.6292 20.7255 12.6292 18.6666C12.6292 16.6077 14.3035 14.9333 16.3625 14.9333H16.3639L16.3626 10.5691C14.1571 9.51877 12.6292 7.26788 12.6292 4.66659C12.6292 4.15144 13.0474 3.7333 13.5625 3.7333H14.0637C13.7445 3.18358 13.5625 2.54603 13.5625 1.86659V0.933297C13.5625 0.418141 13.9807 0 14.4958 0ZM33.1624 35.672V34.5334H36.1118C37.5734 34.5334 38.7625 35.7234 38.7625 37.1934C38.7681 37.7264 38.6151 38.2415 38.3229 38.6811L35.0291 43.5973V37.5387C35.0292 37.0226 34.612 36.6053 34.0958 36.6053H33.9371C33.4891 36.5287 33.1587 36.1377 33.1624 35.672ZM29.5133 32.4996C30.1282 32.3806 30.7236 32.2126 31.2957 32V35.6636C31.2864 36.8807 32.0564 37.9363 33.1624 38.3254V40.4479C31.7315 42.032 29.7086 42.9333 27.5625 42.9333C25.4163 42.9333 23.3935 42.0319 21.9625 40.4494V38.3264C23.0676 37.9373 23.8375 36.8826 23.8292 35.672V32.0136C25.0092 32.4416 26.2729 32.6723 27.5729 32.6723C28.2122 32.6723 28.8619 32.6153 29.5133 32.4996ZM20.0958 37.5387V43.5959L16.8041 38.6829C16.5101 38.2414 16.3571 37.7253 16.3626 37.1839C16.3625 35.7224 17.5515 34.5333 19.0132 34.5333H21.9625V35.6786C21.9654 36.1377 21.6358 36.5288 21.1878 36.6054H21.0291C20.514 36.6054 20.0958 37.0226 20.0958 37.5387ZM35.1286 11.1999H36.8961L36.897 14.0611C36.1834 13.4162 35.4004 12.4564 35.1286 11.1999ZM33.2295 11.1999C33.6437 14.0413 35.8704 15.7542 36.8977 16.4045L36.8987 19.5273L36.7017 22.0715C36.4422 26.3238 33.3398 29.8584 29.1725 30.6647C24.2035 31.5467 19.4397 28.2213 18.5568 23.2503C18.5092 22.9796 18.4728 22.7071 18.4504 22.4401L18.2292 19.6V16.4032C19.2575 15.752 21.4815 14.0394 21.8954 11.1999H33.2295ZM16.3625 16.8H16.3645L16.3654 19.6719L16.4318 20.5333H16.3625C15.3331 20.5333 14.4958 19.6961 14.4958 18.6666C14.4958 17.6372 15.3331 16.8 16.3625 16.8ZM19.9964 11.1999C19.7247 12.4555 18.9425 13.4148 18.2292 14.0597V11.1334C18.5341 11.1772 18.8457 11.1999 19.1625 11.1999H19.9964ZM38.7625 19.6V16.8C39.792 16.8 40.6292 17.6372 40.6292 18.6667C40.6292 19.6961 39.7921 20.5334 38.7625 20.5334H38.6912L38.7625 19.6ZM14.5901 5.6C15.0232 7.72702 16.9095 9.3333 19.1625 9.3333V9.33341H36.8435C36.3778 5.13898 32.8125 1.8667 28.4958 1.8667H15.4291C15.4291 2.89625 16.2664 3.73341 17.2958 3.73341C17.811 3.73341 18.2291 4.15155 18.2291 4.6667C18.2291 5.18186 17.811 5.6 17.2958 5.6H14.5901ZM23.8292 17.7333C23.8292 18.7642 22.9935 19.6 21.9625 19.6C20.9316 19.6 20.0958 18.7642 20.0958 17.7333C20.0958 16.7023 20.9316 15.8666 21.9625 15.8666C22.9935 15.8666 23.8292 16.7023 23.8292 17.7333ZM33.1625 19.6C34.1935 19.6 35.0292 18.7642 35.0292 17.7333C35.0292 16.7023 34.1935 15.8666 33.1625 15.8666C32.1316 15.8666 31.2958 16.7023 31.2958 17.7333C31.2958 18.7642 32.1316 19.6 33.1625 19.6ZM27.0744 20.5333L28.4287 17.1472L26.6955 16.4537L24.8288 21.1204C24.714 21.4079 24.7495 21.7346 24.9231 21.9903C25.0967 22.246 25.3861 22.4 25.6959 22.4H28.4959V20.5333H27.0744ZM25.8545 24.2667C27.3077 24.2657 28.6741 23.7001 29.7027 22.6726L31.0224 23.9933C29.642 25.3727 27.8061 26.1324 25.8545 26.1334H25.6958V24.2667H25.8545ZM17.2959 47.6C17.2959 47.0839 17.7141 46.6667 18.2292 46.6667C18.7444 46.6667 19.1625 47.0839 19.1625 47.6V53.2C19.1625 53.7161 18.7444 54.1333 18.2292 54.1333C17.7141 54.1333 17.2959 53.7161 17.2959 53.2V47.6ZM35.9625 47.6C35.9625 47.0839 36.3797 46.6667 36.8958 46.6667C37.412 46.6667 37.8292 47.0839 37.8291 47.6V53.2C37.8291 53.7161 37.412 54.1333 36.8958 54.1333C36.3797 54.1333 35.9625 53.7161 35.9625 53.2V47.6Z" fill="#79C8C7"/>
</svg>
